{"title":"Rudolph The Red-Nosed Reindeer 1964 English Spanish DVD-R (RLG) ","uid":9357310,"size":3095922688,"categoryP":"video","categoryS":"movies_dvdr","magnet":"?xt=urn:btih:994e2ebbe19feeb3b6489d1429c46e7fef097bdf&amp;dn=Rudolph+The+Red-Nosed+Reindeer+1964+English+Spanish+DVD-R+%28RLG%29+&amp;tr=udp%3A%2F%2Ftracker.openbittorrent.com%3A80&amp;tr=udp%3A%2F%2Fopen.demonii.com%3A1337&amp;tr=udp%3A%2F%2Ftracker.coppersurfer.tk%3A6969&amp;tr=udp%3A%2F%2Fexodus.desync.com%3A6969","seeders":0,"leechers":0,"uploader":"RedLegsGreaves","files":-1,"time":1387240032,"description":" &lt;a href=&quot;http://www.imdb.com/title/tt0058536/&quot; rel=&quot;nofollow&quot; target=&quot;_NEW&quot;&gt;http://www.imdb.com/title/tt0058536/&lt;/a&gt;\nA misfit reindeer and his friends look for a place that will accept them.\n\n\nLanguages: English Spanish.\nSubtitles: English.\n\n\nFor Newer Users.\nSimply Drag downloaded folder to your Media Player. This is a NTSC DVD.\nThis is ripped so you would have best quality, menu, bonus/special feature, language options etc.\nNote:DVDs may not have have all* features.\n\n\nVideo\nID : 224 (0xE0)\nFormat : MPEG Video\nFormat version : Version 2\nFormat profile : Main@Main\nFormat settings, BVOP : Yes\nFormat settings, Matrix : Custom\nFormat settings, GOP : M=3, N=15\nDuration : 27s 995ms\nBit rate mode : Variable\nBit rate : 5 383 Kbps\nMaximum bit rate : 8 000 Kbps\nWidth : 720 pixels\nHeight : 480 pixels\nDisplay aspect ratio : 4:3\nFrame rate : 29.970 fps\nStandard : NTSC\nColor space : YUV\nChroma subsampling : 4:2:0\nBit depth : 8 bits\nScan type : Interlaced\nScan order : Top Field First\nCompression mode : Lossy\nBits/(Pixel*Frame) : 0.520\nTime code of first frame : 00:59:59;00\nTime code source : Group of pictures header\nStream size : 18.0 MiB (94%)\n\nAudio\nID : 189 (0xBD)-128 (0x80)\nFormat : AC-3\nFormat/Info : Audio Coding 3\nMode extension : CM (complete main)\nFormat settings, Endianness : Big\nMuxing mode : DVD-Video\nDuration : 22s 48ms\nBit rate mode : Constant\nBit rate : 224 Kbps\nChannel count : 2 channels\nChannel positions : Front: L R\nSampling rate : 48.0 KHz\nBit depth : 16 bits\nCompression mode : Lossy\nDelay relative to video : -66ms\nStream size : 603 KiB (3%)","torrent":{"xt":"urn:btih:994e2ebbe19feeb3b6489d1429c46e7fef097bdf","amp;dn":"Rudolph+The+Red-Nosed+Reindeer+1964+English+Spanish+DVD-R+%28RLG%29+","amp;tr":["udp%3A%2F%2Ftracker.openbittorrent.com%3A80","udp%3A%2F%2Fopen.demonii.com%3A1337","udp%3A%2F%2Ftracker.coppersurfer.tk%3A6969","udp%3A%2F%2Fexodus.desync.com%3A6969"],"infoHash":"994e2ebbe19feeb3b6489d1429c46e7fef097bdf","infoHashBuffer":{"type":"Buffer","data":[153,78,46,187,225,159,238,179,182,72,157,20,41,196,110,127,239,9,123,223]},"announce":[],"urlList":[]}}